<?xml version="1.0" encoding="UTF-8" standalone="no"?>
<svg
   aria-hidden="true"
   role="img"
   class="iconify iconify--logos"
   width="80.517883"
   height="61.672424"
   preserveAspectRatio="xMidYMid"
   viewBox="0 0 646.56771 495.30665"
   version="1.1"
   id="svg323"
   sodipodi:docname="mdej.svg"
   inkscape:version="1.2.2 (732a01da63, 2022-12-09)"
   xmlns:inkscape="http://www.inkscape.org/namespaces/inkscape"
   xmlns:sodipodi="http://sodipodi.sourceforge.net/DTD/sodipodi-0.dtd"
   xmlns="http://www.w3.org/2000/svg"
   xmlns:svg="http://www.w3.org/2000/svg">
  <sodipodi:namedview
     id="namedview20"
     pagecolor="#505050"
     bordercolor="#eeeeee"
     borderopacity="1"
     inkscape:showpageshadow="0"
     inkscape:pageopacity="0"
     inkscape:pagecheckerboard="0"
     inkscape:deskcolor="#505050"
     showgrid="false"
     inkscape:zoom="5.712097"
     inkscape:cx="41.92856"
     inkscape:cy="36.063814"
     inkscape:window-width="1366"
     inkscape:window-height="697"
     inkscape:window-x="1016"
     inkscape:window-y="-8"
     inkscape:window-maximized="1"
     inkscape:current-layer="layer1" />
  <defs
     id="defs317">
    <linearGradient
       id="IconifyId1813088fe1fbc01fb466"
       x1="-2.0007203"
       x2="139.28905"
       y1="48.343502"
       y2="219.34656"
       gradientTransform="matrix(1.0592958,0,0,0.94402338,238.31824,-42.322317)"
       gradientUnits="userSpaceOnUse">
      <stop
         offset="0%"
         stop-color="#41D1FF"
         id="stop305" />
      <stop
         offset="100%"
         stop-color="#BD34FE"
         id="stop307" />
    </linearGradient>
    <linearGradient
       id="IconifyId1813088fe1fbc01fb467"
       x1="0.43375999"
       x2="0.50316"
       y1="0.02242"
       y2="0.89029998">
      <stop
         offset="0%"
         stop-color="#FFEA83"
         id="stop310" />
      <stop
         offset="8.333%"
         stop-color="#FFDD35"
         id="stop312" />
      <stop
         offset="100%"
         stop-color="#FFA800"
         id="stop314" />
    </linearGradient>
  </defs>
  <g
     id="layer1"
     transform="matrix(3.4534396,0,0,3.1883085,-50.451623,-233.86759)">
    <path
       sodipodi:type="star"
       style="fill:#e3dbdb;stroke-width:2.42034"
       id="path611"
       inkscape:flatsided="false"
       sodipodi:sides="5"
       sodipodi:cx="0"
       sodipodi:cy="0"
       sodipodi:r1="20.664932"
       sodipodi:r2="10.332469"
       sodipodi:arg1="0.94647456"
       sodipodi:arg2="1.5747931"
       inkscape:rounded="0"
       inkscape:randomized="0"
       d="M 12.079627,16.766695 -0.04129643,10.332386 -12.213264,16.669601 -9.8394448,3.1536078 -19.627839,-6.4643145 -6.0398149,-8.3833497 0.08259264,-20.664767 6.1066339,-8.3348028 19.678884,-6.307214 9.8139222,3.2321582 Z"
       transform="matrix(4.7638358,0,0,4.1502763,108.09964,159.11611)"
       inkscape:transform-center-x="-0.41988945"
       inkscape:transform-center-y="-25.790371" />
    <g
       id="g181"
       transform="matrix(0.77165543,0,0,0.78721316,27.204145,48.491886)">
      <path
         style="fill:#6c8dab;stroke-width:0.126105"
         d="m 126.57341,187.98775 c -0.31783,-0.063 -0.98236,-0.30815 -1.47675,-0.54482 -0.81136,-0.3884 -1.54989,-1.0445 -7.58351,-6.73706 -7.9075,-7.46051 -7.56924,-7.03903 -7.56924,-9.43148 0,-1.36987 0.0165,-1.45582 0.43243,-2.25509 0.55337,-1.06333 1.64553,-2.08178 2.78284,-2.59503 1.57528,-0.7109 3.66864,-0.61458 5.19579,0.23907 0.31782,0.17765 1.79942,1.47634 3.29244,2.88596 2.20228,2.07927 2.86873,2.63604 3.53136,2.95017 1.10897,0.52574 2.21193,0.70267 3.29818,0.52908 1.68094,-0.26861 2.00947,-0.50995 6.63758,-4.87581 2.33161,-2.19949 9.26592,-8.72884 15.40958,-14.50967 14.72524,-13.85559 14.88579,-14.0115 15.27232,-14.82946 0.6726,-1.42336 0.65325,-3.00864 -0.0536,-4.39336 -0.36424,-0.71351 -1.58783,-1.90199 -14.03772,-13.63481 -7.50128,-7.06924 -15.24502,-14.37031 -17.20829,-16.2246 -3.22643,-3.04733 -3.66403,-3.41646 -4.55192,-3.83968 -0.92931,-0.44297 -1.04853,-0.46824 -2.209,-0.46824 -1.40597,0 -2.21894,0.21906 -3.12105,0.841 -0.31702,0.21856 -6.66585,6.13558 -14.10852,13.14892 -19.447432,18.32563 -20.032857,18.88205 -20.551917,19.53372 -0.674386,0.84669 -0.941027,1.68348 -0.941199,2.95372 -1.28e-4,0.97453 0.03841,1.13475 0.480556,1.9975 0.45206,0.8821 0.759706,1.20264 5.163684,5.3801 5.134804,4.87069 5.193926,4.9426 5.492496,6.68022 0.58228,3.38879 -2.816617,6.59464 -6.386874,6.0241 -1.49111,-0.23828 -2.339682,-0.72189 -4.006133,-2.28312 -9.20039,-8.61948 -15.444172,-14.56307 -15.730444,-14.97413 -1.189087,-1.70744 -1.226501,-3.96057 -0.0944,-5.68456 0.202977,-0.3091 6.015197,-5.88184 12.916044,-12.38386 6.900845,-6.50203 18.148017,-17.10139 24.993717,-23.554136 13.61578,-12.834207 13.01246,-12.322492 14.89512,-12.633492 1.07839,-0.178139 2.32813,-0.0041 3.36409,0.468561 0.86618,0.395172 0.8231,0.356019 12.39559,11.264163 4.27295,4.027644 14.64552,13.803864 23.05016,21.724944 8.40464,7.92107 15.48813,14.69416 15.74109,15.05131 0.59475,0.83974 0.81311,1.81876 0.72468,3.24926 -0.0831,1.34412 -0.24155,1.86237 -0.7774,2.54238 -0.35571,0.45143 -16.2271,15.46488 -43.2381,40.90084 -3.68877,3.47368 -6.94469,6.46945 -7.23537,6.65726 -1.13932,0.73615 -2.90071,1.08525 -4.18828,0.83013 z m -46.063469,-0.23744 c -0.368185,-0.12917 -0.917151,-0.39956 -1.219925,-0.60086 -0.302774,-0.2013 -10.060644,-9.33076 -21.684155,-20.28768 C 45.982349,155.90485 34.813292,145.3817 32.785734,143.477 c -2.027559,-1.9047 -3.862574,-3.72774 -4.077811,-4.05121 -0.934226,-1.40401 -1.013863,-3.72621 -0.181858,-5.303 0.312358,-0.59197 1.662596,-1.87916 27.701705,-26.40823 20.380492,-19.198597 22.905142,-21.536162 23.633023,-21.881731 1.61341,-0.765984 3.464004,-0.765787 5.078142,4.95e-4 0.7067,0.335515 1.685897,1.208242 7.305669,6.511313 3.569274,3.368126 6.628988,6.283632 6.799364,6.4789 0.841637,0.964598 1.301192,2.628153 1.089052,3.942253 -0.472003,2.92376 -3.455342,5.00205 -6.465713,4.50422 -1.630322,-0.26961 -2.051101,-0.55099 -5.154674,-3.44699 -2.443127,-2.27967 -2.972117,-2.71309 -3.795245,-3.10949 -0.923273,-0.44464 -1.003657,-0.46061 -2.318096,-0.46061 -1.314423,0 -1.395426,0.0161 -2.335116,0.46397 -0.932882,0.44463 -1.687289,1.13722 -18.099589,16.61659 -9.419374,8.88393 -17.27934,16.39339 -17.466592,16.68768 -1.026556,1.61335 -1.015409,3.66677 0.02873,5.2929 0.343666,0.53522 33.353546,31.7724 34.565658,32.70941 1.678477,1.29752 4.238912,1.4366 6.096305,0.33114 0.408523,-0.24314 7.348899,-6.69051 17.759702,-16.49814 16.66011,-15.69487 17.10104,-16.12217 17.56408,-17.02109 0.8155,-1.58315 0.72439,-3.35836 -0.24899,-4.85142 -0.20519,-0.31475 -2.35917,-2.44594 -4.78662,-4.73598 -2.42745,-2.29005 -4.58848,-4.4288 -4.80229,-4.7528 -0.93193,-1.41218 -1.05588,-3.36584 -0.31093,-4.90104 1.04989,-2.16365 3.59198,-3.46846 6.00586,-3.08272 1.81214,0.28959 1.77708,0.26184 9.49763,7.51763 9.65131,9.07032 10.1443,9.55632 10.54079,10.39153 0.70091,1.47644 0.6923,3.07265 -0.0244,4.52761 -0.39415,0.80014 1.38548,-0.90155 -29.32629,28.04198 -20.288191,19.12009 -21.293143,20.04701 -22.207923,20.48341 -0.902262,0.43044 -1.037211,0.45869 -2.31403,0.48435 -1.062937,0.0214 -1.50053,-0.0235 -2.025319,-0.20762 z m 69.726739,-38.83986 c -1.35211,-0.48171 -2.34669,-1.88772 -2.34669,-3.31745 0,-1.26746 1.04656,-2.70738 2.34931,-3.23231 1.41711,-0.57102 3.44903,0.13123 4.26503,1.47402 1.38405,2.27758 -0.12913,5.04851 -2.84803,5.21526 -0.5994,0.0368 -1.04878,-0.007 -1.41962,-0.13952 z m -92.428501,-1.15064 c -0.610967,-0.27056 -0.884757,-0.54673 -1.150821,-1.16083 -0.162435,-0.37491 -0.197517,-1.09772 -0.197517,-4.06946 v -3.61357 l -3.306638,0.0856 c -4.46505,0.11554 -5.033231,-0.002 -5.650178,-1.1661 -0.37012,-0.69854 -0.392155,-1.93351 -0.04756,-2.66512 0.28902,-0.61362 0.909621,-1.13604 1.469949,-1.23741 0.230798,-0.0418 2.034906,-0.11363 4.009131,-0.15973 l 3.589498,-0.0838 0.06421,-3.34365 c 0.07129,-3.71242 0.123839,-3.97343 0.917369,-4.55639 0.634546,-0.46617 1.479594,-0.63886 2.297934,-0.46961 0.844276,0.17461 1.337,0.51282 1.699406,1.16647 0.272251,0.49105 0.28801,0.67836 0.327314,3.89049 l 0.04129,3.3746 h 3.24204 c 3.66778,0 4.240457,0.0897 4.921547,0.7706 0.521605,0.52148 0.678543,0.93756 0.678543,1.79898 0,0.97832 -0.374842,1.67589 -1.129836,2.10258 -0.577965,0.32664 -0.656373,0.33631 -3.422718,0.42197 -1.557161,0.0482 -3.16347,0.092 -3.569577,0.0974 l -0.738375,0.01 -7.7e-4,3.49844 c -3.86e-4,2.02433 -0.0566,3.6925 -0.133349,3.95899 -0.170008,0.59034 -0.701779,1.19851 -1.236256,1.41387 -0.61072,0.24609 -2.052388,0.2116 -2.674692,-0.064 z m 83.788731,-7.80847 c -1.02157,-0.29968 -1.81544,-0.98504 -2.28381,-1.97165 -0.26843,-0.56544 -0.30668,-0.79673 -0.25609,-1.54873 0.0716,-1.0646 0.30261,-1.52942 1.17609,-2.36664 0.96325,-0.92325 2.2252,-1.18298 3.58187,-0.73718 1.97154,0.64784 2.96526,3.11414 1.96014,4.86484 -0.48344,0.84206 -1.22795,1.45835 -2.04415,1.6921 -0.67815,0.19421 -1.60201,0.22333 -2.13405,0.0673 z m 17.64121,-0.027 c -0.74135,-0.24378 -1.62856,-1.00341 -2.00833,-1.71952 -0.45945,-0.86638 -0.50666,-2.03483 -0.11658,-2.88525 0.33657,-0.73376 1.24081,-1.67219 1.88451,-1.95574 0.76626,-0.33753 2.13337,-0.3096 2.9535,0.0603 0.90317,0.4074 1.66946,1.25283 1.9355,2.13535 0.25083,0.83208 0.1949,1.90586 -0.13091,2.51347 -0.32803,0.61173 -1.0877,1.36441 -1.66742,1.65207 -0.60466,0.30004 -2.20384,0.41185 -2.85027,0.19928 z m -9.11563,-8.96649 c -1.80629,-0.64309 -2.78352,-2.84981 -2.00818,-4.53476 0.35535,-0.77223 1.25268,-1.69532 1.93116,-1.98658 0.76818,-0.32977 1.99836,-0.31568 2.83762,0.0325 0.91732,0.38056 1.74203,1.26955 2.01365,2.17059 0.2519,0.83565 0.19657,1.90827 -0.12985,2.51701 -0.32802,0.61173 -1.08769,1.36441 -1.66741,1.65207 -0.68205,0.33844 -2.22782,0.41589 -2.97699,0.14917 z"
         id="path195" />
      <path
         style="fill:#989926;stroke-width:0.126105"
         d="m 81.249391,187.73348 c -1.204989,-0.22779 -1.914447,-0.70159 -4.050831,-2.70528 -1.941525,-1.82093 -18.603084,-17.51524 -38.71417,-36.4667 -4.980532,-4.69335 -9.241218,-8.78235 -9.468191,-9.08666 -0.226973,-0.30431 -0.480094,-0.7553 -0.562491,-1.00221 -0.0824,-0.24691 -0.214514,-0.52717 -0.293593,-0.6228 -0.08398,-0.10156 -0.137503,-0.6166 -0.128684,-1.23839 0.0137,-0.96574 0.05948,-1.1503 0.493444,-1.98918 0.57061,-1.10302 -0.421631,-0.13168 14.066348,-13.77018 5.968,-5.61808 16.621283,-15.65241 23.67396,-22.298512 8.971184,-8.45401 13.015627,-12.184904 13.464141,-12.42032 1.223448,-0.642163 2.478699,-0.818726 3.851469,-0.541747 1.472205,0.297043 1.744988,0.518703 8.653226,7.031489 3.597729,3.391782 6.688901,6.384608 6.869272,6.650725 1.928199,2.844835 0.481564,6.588435 -2.93977,7.607535 -1.46022,0.43495 -3.074604,0.26233 -4.390071,-0.46941 -0.317822,-0.17679 -1.792939,-1.47107 -3.278035,-2.87617 -2.902482,-2.74615 -3.518554,-3.17099 -5.039978,-3.47559 -1.398837,-0.280052 -3.091764,0.0774 -4.293107,0.90648 -0.47586,0.3284 -32.150464,30.11687 -34.155054,32.12121 -1.593974,1.59378 -1.958473,3.83853 -0.944553,5.81698 0.445387,0.86908 1.021442,1.4276 17.526696,16.99315 9.386394,8.85199 17.335391,16.27316 17.66444,16.49149 1.839985,1.22085 4.44122,1.22726 6.267589,0.0155 0.30703,-0.20372 2.200496,-1.92086 4.207702,-3.81587 2.007205,-1.89501 9.701571,-9.14768 17.09859,-16.11704 13.18634,-12.42396 13.45858,-12.69 13.93283,-13.61527 0.46281,-0.90296 0.48369,-0.99772 0.48369,-2.19463 0,-1.19586 -0.0212,-1.29229 -0.48165,-2.19118 -0.45337,-0.88506 -0.75644,-1.20098 -5.16222,-5.38099 -3.97788,-3.77404 -4.72882,-4.54298 -5.0019,-5.12184 -0.9546,-2.02347 -0.52598,-4.27092 1.10053,-5.77067 0.86665,-0.7991 1.40486,-1.10641 2.35636,-1.34541 1.48634,-0.37336 3.22734,-0.11823 4.39519,0.64407 0.43844,0.28618 5.43004,4.93599 15.52249,14.4596 1.55928,1.4714 1.89769,1.85942 2.23641,2.56425 0.77271,1.60788 0.60721,3.56899 -0.41689,4.94026 -0.23258,0.31142 -2.04311,2.09395 -4.02341,3.96118 -33.916459,31.9799 -46.029446,43.33817 -46.568465,43.66692 -1.062996,0.64833 -2.603925,0.89999 -3.951314,0.64526 z m 44.736869,-0.11709 c -0.42887,-0.13114 -1.02774,-0.39907 -1.33083,-0.59538 -0.30309,-0.19629 -3.48994,-3.12597 -7.0819,-6.51037 -6.28314,-5.92008 -6.54923,-6.18935 -7.01602,-7.1002 -0.45948,-0.89658 -0.48519,-1.00976 -0.48519,-2.13605 0,-1.12523 0.026,-1.24007 0.48273,-2.13126 1.08518,-2.11749 3.48399,-3.34968 5.76633,-2.96198 1.63564,0.27785 2.18407,0.644 5.08655,3.39592 1.46378,1.38785 2.90246,2.66979 3.19707,2.84877 1.01155,0.61453 2.02916,0.86069 3.33411,0.80653 1.03534,-0.043 1.28412,-0.10164 2.11882,-0.49966 0.89588,-0.4272 1.85458,-1.30758 18.18886,-16.703 16.90273,-15.93119 17.25256,-16.27044 17.72102,-17.18439 0.45621,-0.8901 0.47787,-0.98907 0.47787,-2.18329 0,-1.19817 -0.0205,-1.29097 -0.48671,-2.20105 -0.48015,-0.93734 -0.71936,-1.16954 -17.75051,-17.23102 -15.75495,-14.85793 -17.3366,-16.31438 -18.09664,-16.6642 -1.54098,-0.709241 -3.4149,-0.702493 -4.95096,0.0178 -0.65292,0.30618 -1.24015,0.77402 -2.69667,2.14843 -1.0241,0.96636 -8.70962,8.20794 -17.07895,16.09239 -8.879621,8.36519 -15.417634,14.61865 -15.698818,15.01558 -0.679559,0.95928 -0.908139,1.80978 -0.842458,3.13462 0.0449,0.90566 0.120941,1.21249 0.469912,1.8961 0.371686,0.7281 0.912354,1.28432 5.040552,5.18552 4.284558,4.04895 4.65828,4.43615 5.08809,5.27153 1.333552,2.5919 0.183745,5.5907 -2.637892,6.87986 -0.801251,0.36607 -0.950791,0.39189 -2.270294,0.39189 -1.327478,0 -1.465651,-0.0243 -2.294393,-0.40277 -0.723655,-0.33051 -1.218926,-0.72111 -2.760882,-2.17736 -1.033469,-0.97603 -4.797222,-4.52256 -8.363896,-7.88119 -3.566675,-3.35863 -6.675157,-6.36258 -6.907739,-6.67545 -0.640999,-0.86227 -0.976325,-2.06811 -0.888067,-3.19351 0.108515,-1.38369 0.589304,-2.26446 1.978237,-3.62396 3.245888,-3.17712 48.827328,-46.020255 49.283958,-46.323235 1.48724,-0.986797 3.70608,-1.153442 5.36768,-0.403136 0.70758,0.319514 1.21486,0.715149 2.69351,2.100694 3.35826,3.146825 42.11152,39.670147 45.26281,42.658307 2.72561,2.58451 3.17301,3.06345 3.59516,3.84853 0.46301,0.86104 0.48218,0.94587 0.48256,2.13505 0,1.2054 -0.0131,1.26278 -0.50688,2.15426 -0.48147,0.86927 -1.77126,2.10765 -25.3443,24.3343 -13.66035,12.88013 -25.10259,23.60093 -25.42719,23.824 -1.24562,0.856 -3.16542,1.11734 -4.71864,0.64235 z m 24.74766,-38.64107 c -1.25723,-0.24105 -2.27318,-1.15549 -2.65258,-2.38757 -0.24061,-0.78135 -0.24016,-1.11602 0.003,-1.90417 0.23003,-0.747 1.1402,-1.78527 1.88715,-2.15277 2.23188,-1.09805 4.97917,0.61734 4.97917,3.10897 0,2.15142 -2.02728,3.75522 -4.21627,3.33554 z m -92.668915,-1.29245 c -0.282509,-0.0963 -0.669727,-0.34247 -0.860485,-0.54698 -0.595779,-0.63876 -0.656111,-1.12749 -0.582163,-4.71591 0.03719,-1.80495 0.03992,-3.35138 0.0061,-3.43652 -0.04732,-0.11898 -0.933836,-0.1548 -3.830692,-0.1548 -2.350857,0 -3.905153,-0.0496 -4.130623,-0.13172 -0.9141,-0.33307 -1.40656,-1.27973 -1.299343,-2.49776 0.07705,-0.87532 0.417424,-1.51817 0.983621,-1.85772 0.454291,-0.27244 0.577764,-0.28169 4.2517,-0.31859 2.43169,-0.0244 3.842742,-0.0851 3.948704,-0.16996 0.126088,-0.10091 0.164882,-0.85152 0.164882,-3.19029 0,-3.52226 0.09765,-4.0725 0.833325,-4.69542 0.513521,-0.43481 1.071293,-0.56605 2.067248,-0.4864 0.877448,0.0702 1.302983,0.35584 1.722299,1.15619 0.314866,0.60098 0.321829,0.6764 0.362454,3.92534 0.04108,3.28544 0.04371,3.31309 0.321033,3.37516 0.153786,0.0344 1.72426,0.0484 3.48994,0.0311 3.13201,-0.0307 3.225091,-0.0245 3.815448,0.25591 0.873845,0.41506 1.192664,0.96721 1.192664,2.06551 0,1.07207 -0.285229,1.60283 -1.098076,2.04333 -0.562402,0.30478 -0.622264,0.31013 -3.845829,0.34363 -1.800994,0.0187 -3.40009,0.0605 -3.553546,0.0928 -0.277764,0.0585 -0.279198,0.0755 -0.321033,3.80497 -0.04028,3.59063 -0.05384,3.76747 -0.326656,4.25942 -0.513993,0.92685 -1.979786,1.30258 -3.310933,0.84871 z m 83.032355,-8.01581 c -1.26505,-0.59107 -1.98699,-1.70604 -1.98621,-3.0675 5.1e-4,-0.91574 0.27985,-1.55739 1.02357,-2.35128 1.65937,-1.7713 4.82786,-1.17026 5.70148,1.08153 0.67244,1.73323 -0.0655,3.57314 -1.73347,4.32221 -0.86252,0.38735 -2.19428,0.39401 -3.00537,0.015 z m 18.15241,0.0871 c -1.82576,-0.65342 -2.75065,-2.74295 -1.9555,-4.4179 1.00305,-2.1129 3.27482,-2.70344 5.27503,-1.37123 1.03061,0.68641 1.57225,2.28034 1.19713,3.52284 -0.43549,1.44244 -1.55803,2.30267 -3.13026,2.39877 -0.57818,0.0353 -1.04106,-0.009 -1.3864,-0.13248 z m -9.11255,-9.08242 c -1.29403,-0.56888 -1.98699,-1.60717 -1.98915,-2.98042 -10e-4,-0.94343 0.28606,-1.6053 0.99607,-2.2927 0.79426,-0.76897 1.32643,-0.96655 2.46863,-0.91653 0.88015,0.0385 1.06168,0.0913 1.68297,0.48912 1.3356,0.8552 1.88377,2.55086 1.26967,3.92753 -0.34699,0.77785 -1.2926,1.6462 -2.02227,1.85703 -0.74162,0.21428 -1.81243,0.17688 -2.40592,-0.084 z"
         id="path193" />
      <path
         style="fill:#b63838;stroke-width:0.126105"
         d="m 81.249391,187.73348 c -1.204989,-0.22779 -1.914447,-0.70159 -4.050831,-2.70528 -1.941525,-1.82093 -18.603084,-17.51524 -38.71417,-36.4667 -4.980532,-4.69335 -9.241218,-8.78235 -9.468191,-9.08666 -0.226973,-0.30431 -0.480094,-0.7553 -0.562491,-1.00221 -0.0824,-0.24691 -0.214514,-0.52717 -0.293593,-0.6228 -0.08398,-0.10156 -0.137503,-0.6166 -0.128684,-1.23839 0.0137,-0.96574 0.05948,-1.1503 0.493444,-1.98918 0.57061,-1.10302 -0.421631,-0.13168 14.066348,-13.77018 5.968,-5.61808 16.621283,-15.65241 23.67396,-22.298512 8.971184,-8.45401 13.015627,-12.184904 13.464141,-12.42032 1.223448,-0.642163 2.478699,-0.818726 3.851469,-0.541747 1.472205,0.297043 1.744988,0.518703 8.653226,7.031489 3.597729,3.391782 6.688901,6.384608 6.869272,6.650725 1.928199,2.844835 0.481564,6.588435 -2.93977,7.607535 -1.46022,0.43495 -3.074604,0.26233 -4.390071,-0.46941 -0.317822,-0.17679 -1.792939,-1.47107 -3.278035,-2.87617 -2.902482,-2.74615 -3.518554,-3.17099 -5.039978,-3.47559 -1.398837,-0.280052 -3.091764,0.0774 -4.293107,0.90648 -0.47586,0.3284 -32.150464,30.11687 -34.155054,32.12121 -1.593974,1.59378 -1.958473,3.83853 -0.944553,5.81698 0.445387,0.86908 1.021442,1.4276 17.526696,16.99315 9.386394,8.85199 17.335391,16.27316 17.66444,16.49149 1.839985,1.22085 4.44122,1.22726 6.267589,0.0155 0.30703,-0.20372 2.200496,-1.92086 4.207702,-3.81587 2.007205,-1.89501 9.701571,-9.14768 17.09859,-16.11704 13.18634,-12.42396 13.45858,-12.69 13.93283,-13.61527 0.46281,-0.90296 0.48369,-0.99772 0.48369,-2.19463 0,-1.19586 -0.0212,-1.29229 -0.48165,-2.19118 -0.45337,-0.88506 -0.75644,-1.20098 -5.16222,-5.38099 -3.97788,-3.77404 -4.72882,-4.54298 -5.0019,-5.12184 -0.9546,-2.02347 -0.52598,-4.27092 1.10053,-5.77067 0.86665,-0.7991 1.40486,-1.10641 2.35636,-1.34541 1.48634,-0.37336 3.22734,-0.11823 4.39519,0.64407 0.43844,0.28618 5.43004,4.93599 15.52249,14.4596 1.55928,1.4714 1.89769,1.85942 2.23641,2.56425 0.77271,1.60788 0.60721,3.56899 -0.41689,4.94026 -0.23258,0.31142 -2.04311,2.09395 -4.02341,3.96118 -33.916459,31.9799 -46.029446,43.33817 -46.568465,43.66692 -1.062996,0.64833 -2.603925,0.89999 -3.951314,0.64526 z m 44.736869,-0.11709 c -0.42887,-0.13114 -1.02774,-0.39907 -1.33083,-0.59538 -0.30309,-0.19629 -3.48994,-3.12597 -7.0819,-6.51037 -6.28314,-5.92008 -6.54923,-6.18935 -7.01602,-7.1002 -0.45948,-0.89658 -0.48519,-1.00976 -0.48519,-2.13605 0,-1.12523 0.026,-1.24007 0.48273,-2.13126 1.08518,-2.11749 3.48399,-3.34968 5.76633,-2.96198 1.63564,0.27785 2.18407,0.644 5.08655,3.39592 1.46378,1.38785 2.90246,2.66979 3.19707,2.84877 1.01155,0.61453 2.02916,0.86069 3.33411,0.80653 1.03534,-0.043 1.28412,-0.10164 2.11882,-0.49966 0.89588,-0.4272 1.85458,-1.30758 18.18886,-16.703 16.90273,-15.93119 17.25256,-16.27044 17.72102,-17.18439 0.45621,-0.8901 0.47787,-0.98907 0.47787,-2.18329 0,-1.19817 -0.0205,-1.29097 -0.48671,-2.20105 -0.48015,-0.93734 -0.71936,-1.16954 -17.75051,-17.23102 -15.75495,-14.85793 -17.3366,-16.31438 -18.09664,-16.6642 -1.54098,-0.709241 -3.4149,-0.702493 -4.95096,0.0178 -0.65292,0.30618 -1.24015,0.77402 -2.69667,2.14843 -1.0241,0.96636 -8.70962,8.20794 -17.07895,16.09239 -8.879621,8.36519 -15.417634,14.61865 -15.698818,15.01558 -0.679559,0.95928 -0.908139,1.80978 -0.842458,3.13462 0.0449,0.90566 0.120941,1.21249 0.469912,1.8961 0.371686,0.7281 0.912354,1.28432 5.040552,5.18552 4.284558,4.04895 4.65828,4.43615 5.08809,5.27153 1.333552,2.5919 0.183745,5.5907 -2.637892,6.87986 -0.801251,0.36607 -0.950791,0.39189 -2.270294,0.39189 -1.327478,0 -1.465651,-0.0243 -2.294393,-0.40277 -0.723655,-0.33051 -1.218926,-0.72111 -2.760882,-2.17736 -1.033469,-0.97603 -4.797222,-4.52256 -8.363896,-7.88119 -3.566675,-3.35863 -6.675157,-6.36258 -6.907739,-6.67545 -0.640999,-0.86227 -0.976325,-2.06811 -0.888067,-3.19351 0.108515,-1.38369 0.589304,-2.26446 1.978237,-3.62396 3.245888,-3.17712 48.827328,-46.020255 49.283958,-46.323235 1.48724,-0.986797 3.70608,-1.153442 5.36768,-0.403136 0.70758,0.319514 1.21486,0.715149 2.69351,2.100694 3.35826,3.146825 42.11152,39.670147 45.26281,42.658307 2.72561,2.58451 3.17301,3.06345 3.59516,3.84853 0.46301,0.86104 0.48218,0.94587 0.48256,2.13505 0,1.2054 -0.0131,1.26278 -0.50688,2.15426 -0.48147,0.86927 -1.77126,2.10765 -25.3443,24.3343 -13.66035,12.88013 -25.10259,23.60093 -25.42719,23.824 -1.24562,0.856 -3.16542,1.11734 -4.71864,0.64235 z M 58.065005,147.68287 c -0.282509,-0.0963 -0.669727,-0.34247 -0.860485,-0.54698 -0.595779,-0.63876 -0.656111,-1.12749 -0.582163,-4.71591 0.03719,-1.80495 0.03992,-3.35138 0.0061,-3.43652 -0.04732,-0.11898 -0.933836,-0.1548 -3.830692,-0.1548 -2.350857,0 -3.905153,-0.0496 -4.130623,-0.13172 -0.9141,-0.33307 -1.40656,-1.27973 -1.299343,-2.49776 0.07705,-0.87532 0.417424,-1.51817 0.983621,-1.85772 0.454291,-0.27244 0.577764,-0.28169 4.2517,-0.31859 2.43169,-0.0244 3.842742,-0.0851 3.948704,-0.16996 0.126088,-0.10091 0.164882,-0.85152 0.164882,-3.19029 0,-3.52226 0.09765,-4.0725 0.833325,-4.69542 0.513521,-0.43481 1.071293,-0.56605 2.067248,-0.4864 0.877448,0.0702 1.302983,0.35584 1.722299,1.15619 0.314866,0.60098 0.321829,0.6764 0.362454,3.92534 0.04108,3.28544 0.04371,3.31309 0.321033,3.37516 0.153786,0.0344 1.72426,0.0484 3.48994,0.0311 3.13201,-0.0307 3.225091,-0.0245 3.815448,0.25591 0.873845,0.41506 1.192664,0.96721 1.192664,2.06551 0,1.07207 -0.285229,1.60283 -1.098076,2.04333 -0.562402,0.30478 -0.622264,0.31013 -3.845829,0.34363 -1.800994,0.0187 -3.40009,0.0605 -3.553546,0.0928 -0.277764,0.0585 -0.279198,0.0755 -0.321033,3.80497 -0.04028,3.59063 -0.05384,3.76747 -0.326656,4.25942 -0.513993,0.92685 -1.979786,1.30258 -3.310933,0.84871 z m 83.032355,-8.01581 c -1.26505,-0.59107 -1.98699,-1.70604 -1.98621,-3.0675 5.1e-4,-0.91574 0.27985,-1.55739 1.02357,-2.35128 1.65937,-1.7713 4.82786,-1.17026 5.70148,1.08153 0.67244,1.73323 -0.0655,3.57314 -1.73347,4.32221 -0.86252,0.38735 -2.19428,0.39401 -3.00537,0.015 z m 18.15241,0.0871 c -1.82576,-0.65342 -2.75065,-2.74295 -1.9555,-4.4179 1.00305,-2.1129 3.27482,-2.70344 5.27503,-1.37123 1.03061,0.68641 1.57225,2.28034 1.19713,3.52284 -0.43549,1.44244 -1.55803,2.30267 -3.13026,2.39877 -0.57818,0.0353 -1.04106,-0.009 -1.3864,-0.13248 z m -9.11255,-9.08242 c -1.29403,-0.56888 -1.98699,-1.60717 -1.98915,-2.98042 -10e-4,-0.94343 0.28606,-1.6053 0.99607,-2.2927 0.79426,-0.76897 1.32643,-0.96655 2.46863,-0.91653 0.88015,0.0385 1.06168,0.0913 1.68297,0.48912 1.3356,0.8552 1.88377,2.55086 1.26967,3.92753 -0.34699,0.77785 -1.2926,1.6462 -2.02227,1.85703 -0.74162,0.21428 -1.81243,0.17688 -2.40592,-0.084 z"
         id="path191" />
      <path
         style="fill:#309630;stroke-width:0.126105"
         d="m 81.249391,187.73348 c -1.204989,-0.22779 -1.914447,-0.70159 -4.050831,-2.70528 -1.941525,-1.82093 -18.603084,-17.51524 -38.71417,-36.4667 -4.980532,-4.69335 -9.241218,-8.78235 -9.468191,-9.08666 -0.226973,-0.30431 -0.480094,-0.7553 -0.562491,-1.00221 -0.0824,-0.24691 -0.214514,-0.52717 -0.293593,-0.6228 -0.08398,-0.10156 -0.137503,-0.6166 -0.128684,-1.23839 0.0137,-0.96574 0.05948,-1.1503 0.493444,-1.98918 0.57061,-1.10302 -0.421631,-0.13168 14.066348,-13.77018 5.968,-5.61808 16.621283,-15.65241 23.67396,-22.298512 8.971184,-8.45401 13.015627,-12.184904 13.464141,-12.42032 1.223448,-0.642163 2.478699,-0.818726 3.851469,-0.541747 1.472205,0.297043 1.744988,0.518703 8.653226,7.031489 3.597729,3.391782 6.688901,6.384608 6.869272,6.650725 1.928199,2.844835 0.481564,6.588435 -2.93977,7.607535 -1.46022,0.43495 -3.074604,0.26233 -4.390071,-0.46941 -0.317822,-0.17679 -1.792939,-1.47107 -3.278035,-2.87617 -2.902482,-2.74615 -3.518554,-3.17099 -5.039978,-3.47559 -1.398837,-0.280052 -3.091764,0.0774 -4.293107,0.90648 -0.47586,0.3284 -32.150464,30.11687 -34.155054,32.12121 -1.593974,1.59378 -1.958473,3.83853 -0.944553,5.81698 0.445387,0.86908 1.021442,1.4276 17.526696,16.99315 9.386394,8.85199 17.335391,16.27316 17.66444,16.49149 1.839985,1.22085 4.44122,1.22726 6.267589,0.0155 0.30703,-0.20372 2.200496,-1.92086 4.207702,-3.81587 2.007205,-1.89501 9.701571,-9.14768 17.09859,-16.11704 13.18634,-12.42396 13.45858,-12.69 13.93283,-13.61527 0.46281,-0.90296 0.48369,-0.99772 0.48369,-2.19463 0,-1.19586 -0.0212,-1.29229 -0.48165,-2.19118 -0.45337,-0.88506 -0.75644,-1.20098 -5.16222,-5.38099 -3.97788,-3.77404 -4.72882,-4.54298 -5.0019,-5.12184 -0.9546,-2.02347 -0.52598,-4.27092 1.10053,-5.77067 0.86665,-0.7991 1.40486,-1.10641 2.35636,-1.34541 1.48634,-0.37336 3.22734,-0.11823 4.39519,0.64407 0.43844,0.28618 5.43004,4.93599 15.52249,14.4596 1.55928,1.4714 1.89769,1.85942 2.23641,2.56425 0.77271,1.60788 0.60721,3.56899 -0.41689,4.94026 -0.23258,0.31142 -2.04311,2.09395 -4.02341,3.96118 -33.916459,31.9799 -46.029446,43.33817 -46.568465,43.66692 -1.062996,0.64833 -2.603925,0.89999 -3.951314,0.64526 z m 44.736869,-0.11709 c -0.42887,-0.13114 -1.02774,-0.39907 -1.33083,-0.59538 -0.30309,-0.19629 -3.48994,-3.12597 -7.0819,-6.51037 -6.28314,-5.92008 -6.54923,-6.18935 -7.01602,-7.1002 -0.45948,-0.89658 -0.48519,-1.00976 -0.48519,-2.13605 0,-1.12523 0.026,-1.24007 0.48273,-2.13126 1.08518,-2.11749 3.48399,-3.34968 5.76633,-2.96198 1.63564,0.27785 2.18407,0.644 5.08655,3.39592 1.46378,1.38785 2.90246,2.66979 3.19707,2.84877 1.01155,0.61453 2.02916,0.86069 3.33411,0.80653 1.03534,-0.043 1.28412,-0.10164 2.11882,-0.49966 0.89588,-0.4272 1.85458,-1.30758 18.18886,-16.703 16.90273,-15.93119 17.25256,-16.27044 17.72102,-17.18439 0.45621,-0.8901 0.47787,-0.98907 0.47787,-2.18329 0,-1.19817 -0.0205,-1.29097 -0.48671,-2.20105 -0.48015,-0.93734 -0.71936,-1.16954 -17.75051,-17.23102 -15.75495,-14.85793 -17.3366,-16.31438 -18.09664,-16.6642 -1.54098,-0.709241 -3.4149,-0.702493 -4.95096,0.0178 -0.65292,0.30618 -1.24015,0.77402 -2.69667,2.14843 -1.0241,0.96636 -8.70962,8.20794 -17.07895,16.09239 -8.879621,8.36519 -15.417634,14.61865 -15.698818,15.01558 -0.679559,0.95928 -0.908139,1.80978 -0.842458,3.13462 0.0449,0.90566 0.120941,1.21249 0.469912,1.8961 0.371686,0.7281 0.912354,1.28432 5.040552,5.18552 4.284558,4.04895 4.65828,4.43615 5.08809,5.27153 1.333552,2.5919 0.183745,5.5907 -2.637892,6.87986 -0.801251,0.36607 -0.950791,0.39189 -2.270294,0.39189 -1.327478,0 -1.465651,-0.0243 -2.294393,-0.40277 -0.723655,-0.33051 -1.218926,-0.72111 -2.760882,-2.17736 -1.033469,-0.97603 -4.797222,-4.52256 -8.363896,-7.88119 -3.566675,-3.35863 -6.675157,-6.36258 -6.907739,-6.67545 -0.640999,-0.86227 -0.976325,-2.06811 -0.888067,-3.19351 0.108515,-1.38369 0.589304,-2.26446 1.978237,-3.62396 3.245888,-3.17712 48.827328,-46.020255 49.283958,-46.323235 1.48724,-0.986797 3.70608,-1.153442 5.36768,-0.403136 0.70758,0.319514 1.21486,0.715149 2.69351,2.100694 3.35826,3.146825 42.11152,39.670147 45.26281,42.658307 2.72561,2.58451 3.17301,3.06345 3.59516,3.84853 0.46301,0.86104 0.48218,0.94587 0.48256,2.13505 0,1.2054 -0.0131,1.26278 -0.50688,2.15426 -0.48147,0.86927 -1.77126,2.10765 -25.3443,24.3343 -13.66035,12.88013 -25.10259,23.60093 -25.42719,23.824 -1.24562,0.856 -3.16542,1.11734 -4.71864,0.64235 z M 58.065005,147.68287 c -0.282509,-0.0963 -0.669727,-0.34247 -0.860485,-0.54698 -0.595779,-0.63876 -0.656111,-1.12749 -0.582163,-4.71591 0.03719,-1.80495 0.03992,-3.35138 0.0061,-3.43652 -0.04732,-0.11898 -0.933836,-0.1548 -3.830692,-0.1548 -2.350857,0 -3.905153,-0.0496 -4.130623,-0.13172 -0.9141,-0.33307 -1.40656,-1.27973 -1.299343,-2.49776 0.07705,-0.87532 0.417424,-1.51817 0.983621,-1.85772 0.454291,-0.27244 0.577764,-0.28169 4.2517,-0.31859 2.43169,-0.0244 3.842742,-0.0851 3.948704,-0.16996 0.126088,-0.10091 0.164882,-0.85152 0.164882,-3.19029 0,-3.52226 0.09765,-4.0725 0.833325,-4.69542 0.513521,-0.43481 1.071293,-0.56605 2.067248,-0.4864 0.877448,0.0702 1.302983,0.35584 1.722299,1.15619 0.314866,0.60098 0.321829,0.6764 0.362454,3.92534 0.04108,3.28544 0.04371,3.31309 0.321033,3.37516 0.153786,0.0344 1.72426,0.0484 3.48994,0.0311 3.13201,-0.0307 3.225091,-0.0245 3.815448,0.25591 0.873845,0.41506 1.192664,0.96721 1.192664,2.06551 0,1.07207 -0.285229,1.60283 -1.098076,2.04333 -0.562402,0.30478 -0.622264,0.31013 -3.845829,0.34363 -1.800994,0.0187 -3.40009,0.0605 -3.553546,0.0928 -0.277764,0.0585 -0.279198,0.0755 -0.321033,3.80497 -0.04028,3.59063 -0.05384,3.76747 -0.326656,4.25942 -0.513993,0.92685 -1.979786,1.30258 -3.310933,0.84871 z m 101.184765,-7.92871 c -1.82576,-0.65342 -2.75065,-2.74295 -1.9555,-4.4179 1.00305,-2.1129 3.27482,-2.70344 5.27503,-1.37123 1.03061,0.68641 1.57225,2.28034 1.19713,3.52284 -0.43549,1.44244 -1.55803,2.30267 -3.13026,2.39877 -0.57818,0.0353 -1.04106,-0.009 -1.3864,-0.13248 z m -9.11255,-9.08242 c -1.29403,-0.56888 -1.98699,-1.60717 -1.98915,-2.98042 -10e-4,-0.94343 0.28606,-1.6053 0.99607,-2.2927 0.79426,-0.76897 1.32643,-0.96655 2.46863,-0.91653 0.88015,0.0385 1.06168,0.0913 1.68297,0.48912 1.3356,0.8552 1.88377,2.55086 1.26967,3.92753 -0.34699,0.77785 -1.2926,1.6462 -2.02227,1.85703 -0.74162,0.21428 -1.81243,0.17688 -2.40592,-0.084 z"
         id="path189" />
      <path
         style="fill:#024484;stroke-width:0.126105"
         d="m 81.249391,187.73348 c -1.204989,-0.22779 -1.914447,-0.70159 -4.050831,-2.70528 -1.941525,-1.82093 -18.603084,-17.51524 -38.71417,-36.4667 -4.980532,-4.69335 -9.241218,-8.78235 -9.468191,-9.08666 -0.226973,-0.30431 -0.480094,-0.7553 -0.562491,-1.00221 -0.0824,-0.24691 -0.214514,-0.52717 -0.293593,-0.6228 -0.08398,-0.10156 -0.137503,-0.6166 -0.128684,-1.23839 0.0137,-0.96574 0.05948,-1.1503 0.493444,-1.98918 0.57061,-1.10302 -0.421631,-0.13168 14.066348,-13.77018 5.968,-5.61808 16.621283,-15.65241 23.67396,-22.298512 8.971184,-8.45401 13.015627,-12.184904 13.464141,-12.42032 1.223448,-0.642163 2.478699,-0.818726 3.851469,-0.541747 1.472205,0.297043 1.744988,0.518703 8.653226,7.031489 3.597729,3.391782 6.688901,6.384608 6.869272,6.650725 1.928199,2.844835 0.481564,6.588435 -2.93977,7.607535 -1.46022,0.43495 -3.074604,0.26233 -4.390071,-0.46941 -0.317822,-0.17679 -1.792939,-1.47107 -3.278035,-2.87617 -2.902482,-2.74615 -3.518554,-3.17099 -5.039978,-3.47559 -1.398837,-0.280052 -3.091764,0.0774 -4.293107,0.90648 -0.47586,0.3284 -32.150464,30.11687 -34.155054,32.12121 -1.593974,1.59378 -1.958473,3.83853 -0.944553,5.81698 0.445387,0.86908 1.021442,1.4276 17.526696,16.99315 9.386394,8.85199 17.335391,16.27316 17.66444,16.49149 1.839985,1.22085 4.44122,1.22726 6.267589,0.0155 0.30703,-0.20372 2.200496,-1.92086 4.207702,-3.81587 2.007205,-1.89501 9.701571,-9.14768 17.09859,-16.11704 13.18634,-12.42396 13.45858,-12.69 13.93283,-13.61527 0.46281,-0.90296 0.48369,-0.99772 0.48369,-2.19463 0,-1.19586 -0.0212,-1.29229 -0.48165,-2.19118 -0.45337,-0.88506 -0.75644,-1.20098 -5.16222,-5.38099 -3.97788,-3.77404 -4.72882,-4.54298 -5.0019,-5.12184 -0.9546,-2.02347 -0.52598,-4.27092 1.10053,-5.77067 0.86665,-0.7991 1.40486,-1.10641 2.35636,-1.34541 1.48634,-0.37336 3.22734,-0.11823 4.39519,0.64407 0.43844,0.28618 5.43004,4.93599 15.52249,14.4596 1.55928,1.4714 1.89769,1.85942 2.23641,2.56425 0.77271,1.60788 0.60721,3.56899 -0.41689,4.94026 -0.23258,0.31142 -2.04311,2.09395 -4.02341,3.96118 -33.916459,31.9799 -46.029446,43.33817 -46.568465,43.66692 -1.062996,0.64833 -2.603925,0.89999 -3.951314,0.64526 z m 44.736869,-0.11709 c -0.42887,-0.13114 -1.02774,-0.39907 -1.33083,-0.59538 -0.30309,-0.19629 -3.48994,-3.12597 -7.0819,-6.51037 -6.28314,-5.92008 -6.54923,-6.18935 -7.01602,-7.1002 -0.45948,-0.89658 -0.48519,-1.00976 -0.48519,-2.13605 0,-1.12523 0.026,-1.24007 0.48273,-2.13126 1.08518,-2.11749 3.48399,-3.34968 5.76633,-2.96198 1.63564,0.27785 2.18407,0.644 5.08655,3.39592 1.46378,1.38785 2.90246,2.66979 3.19707,2.84877 1.01155,0.61453 2.02916,0.86069 3.33411,0.80653 1.03534,-0.043 1.28412,-0.10164 2.11882,-0.49966 0.89588,-0.4272 1.85458,-1.30758 18.18886,-16.703 16.90273,-15.93119 17.25256,-16.27044 17.72102,-17.18439 0.45621,-0.8901 0.47787,-0.98907 0.47787,-2.18329 0,-1.19817 -0.0205,-1.29097 -0.48671,-2.20105 -0.48015,-0.93734 -0.71936,-1.16954 -17.75051,-17.23102 -15.75495,-14.85793 -17.3366,-16.31438 -18.09664,-16.6642 -1.54098,-0.709241 -3.4149,-0.702493 -4.95096,0.0178 -0.65292,0.30618 -1.24015,0.77402 -2.69667,2.14843 -1.0241,0.96636 -8.70962,8.20794 -17.07895,16.09239 -8.879621,8.36519 -15.417634,14.61865 -15.698818,15.01558 -0.679559,0.95928 -0.908139,1.80978 -0.842458,3.13462 0.0449,0.90566 0.120941,1.21249 0.469912,1.8961 0.371686,0.7281 0.912354,1.28432 5.040552,5.18552 4.284558,4.04895 4.65828,4.43615 5.08809,5.27153 1.333552,2.5919 0.183745,5.5907 -2.637892,6.87986 -0.801251,0.36607 -0.950791,0.39189 -2.270294,0.39189 -1.327478,0 -1.465651,-0.0243 -2.294393,-0.40277 -0.723655,-0.33051 -1.218926,-0.72111 -2.760882,-2.17736 -1.033469,-0.97603 -4.797222,-4.52256 -8.363896,-7.88119 -3.566675,-3.35863 -6.675157,-6.36258 -6.907739,-6.67545 -0.640999,-0.86227 -0.976325,-2.06811 -0.888067,-3.19351 0.108515,-1.38369 0.589304,-2.26446 1.978237,-3.62396 3.245888,-3.17712 48.827328,-46.020255 49.283958,-46.323235 1.48724,-0.986797 3.70608,-1.153442 5.36768,-0.403136 0.70758,0.319514 1.21486,0.715149 2.69351,2.100694 3.35826,3.146825 42.11152,39.670147 45.26281,42.658307 2.72561,2.58451 3.17301,3.06345 3.59516,3.84853 0.46301,0.86104 0.48218,0.94587 0.48256,2.13505 0,1.2054 -0.0131,1.26278 -0.50688,2.15426 -0.48147,0.86927 -1.77126,2.10765 -25.3443,24.3343 -13.66035,12.88013 -25.10259,23.60093 -25.42719,23.824 -1.24562,0.856 -3.16542,1.11734 -4.71864,0.64235 z M 58.150893,147.68494 c -0.635287,-0.19119 -0.984047,-0.4601 -1.286857,-0.99223 -0.183223,-0.32199 -0.211576,-0.86967 -0.211576,-4.08697 v -3.71516 l -4.003789,-0.0619 c -3.816665,-0.059 -4.02072,-0.0741 -4.366046,-0.32254 -1.096356,-0.78877 -1.251131,-2.76031 -0.298813,-3.8063 0.583901,-0.64133 0.996116,-0.70087 4.852754,-0.70087 1.910621,0 3.565262,-0.0338 3.676978,-0.0752 0.177334,-0.0656 0.203123,-0.44868 0.203123,-3.01714 0,-3.09128 0.106137,-4.07485 0.494841,-4.58568 0.652535,-0.85757 2.128254,-1.12599 3.234033,-0.58824 0.439401,0.21369 0.647435,0.42298 0.892425,0.89783 0.310574,0.60197 0.321291,0.71221 0.38524,3.96284 l 0.06578,3.34364 3.659775,0.0619 c 2.44049,0.0413 3.745338,0.10994 3.9166,0.20606 0.829418,0.46551 1.31185,1.49803 1.169127,2.50222 -0.110502,0.77749 -0.503769,1.31475 -1.206073,1.6477 -0.575289,0.27273 -0.776039,0.28995 -4.072274,0.34934 l -3.467155,0.0625 -0.07202,3.71516 c -0.04947,2.5517 -0.122402,3.8315 -0.232892,4.08667 -0.491754,1.13568 -1.806163,1.57591 -3.333177,1.11637 z m 91.986327,-17.0132 c -1.29403,-0.56888 -1.98699,-1.60717 -1.98915,-2.98042 -10e-4,-0.94343 0.28606,-1.6053 0.99607,-2.2927 0.79426,-0.76897 1.32643,-0.96655 2.46863,-0.91653 0.88015,0.0385 1.06168,0.0913 1.68297,0.48912 1.3356,0.8552 1.88377,2.55086 1.26967,3.92753 -0.34699,0.77785 -1.2926,1.6462 -2.02227,1.85703 -0.74162,0.21428 -1.81243,0.17688 -2.40592,-0.084 z"
         id="path187" />
      <path
         style="fill:#0f2f48;stroke-width:0.126105"
         d="m 126.38079,187.69693 c -1.44535,-0.33941 -1.69415,-0.53824 -7.38376,-5.90089 -3.00165,-2.82916 -5.97763,-5.62463 -6.61327,-6.21216 -1.41348,-1.30648 -1.93257,-2.10011 -2.19962,-3.36297 -0.18126,-0.85719 -0.18126,-1.03586 0,-1.89305 0.35541,-1.68073 1.38196,-2.92594 3.03208,-3.67796 1.49283,-0.68033 3.64121,-0.5852 5.0505,0.22364 0.26929,0.15455 1.76442,1.46489 3.32252,2.91187 3.10365,2.88231 3.60721,3.21489 5.24317,3.4629 1.47096,0.22299 3.13104,-0.19189 4.24784,-1.06162 0.40888,-0.31842 9.30727,-8.68223 28.04588,-26.36098 3.24886,-3.0651 6.07375,-5.76795 6.27756,-6.00634 0.68681,-0.8034 1.02306,-1.69232 1.08202,-2.86046 0.0659,-1.3064 -0.16396,-2.15915 -0.84229,-3.1244 -0.27329,-0.38887 -3.43112,-3.46339 -7.2952,-7.10271 -3.74733,-3.52936 -11.36568,-10.70803 -16.92967,-15.9526 -5.56399,-5.24456 -10.3481,-9.68686 -10.63136,-9.87178 -0.97088,-0.63379 -1.85704,-0.88536 -3.12227,-0.88636 -1.30277,-9.9e-4 -2.22374,0.25682 -3.16768,0.88688 -0.48399,0.32305 -30.086192,28.11871 -33.567184,31.51867 -1.430787,1.39748 -1.863588,2.1021 -2.122028,3.45474 -0.296627,1.5525 0.301236,3.19964 1.649455,4.5443 0.405959,0.40489 2.385006,2.2828 4.397882,4.17314 2.012876,1.89034 3.875572,3.71038 4.139325,4.04452 0.56307,0.71334 0.997825,1.96253 0.995676,2.8609 -0.0078,3.27356 -3.316097,5.76968 -6.661235,5.02596 -1.501731,-0.33388 -1.543742,-0.36915 -10.482034,-8.79986 -9.223906,-8.70011 -9.125105,-8.59275 -9.435384,-10.25227 -0.249704,-1.33553 0.10588,-2.77166 0.939203,-3.79326 0.36791,-0.45104 6.312087,-6.07084 39.684054,-37.518536 5.56549,-5.244567 10.35695,-9.690548 10.64771,-9.879959 0.29075,-0.18941 0.92885,-0.461611 1.418,-0.604891 1.58861,-0.465339 3.57846,-0.133803 4.78905,0.797921 0.29048,0.223562 11.68462,10.926109 25.32032,23.783435 23.51603,22.17367 24.81702,23.42287 25.27492,24.26866 0.45639,0.843 0.48319,0.95593 0.49073,2.06815 0.007,1.09634 -0.022,1.23551 -0.43206,2.04334 -0.35957,0.70833 -0.75882,1.17418 -2.18303,2.54718 -2.20782,2.12842 -46.35067,43.7169 -47.66227,44.90425 -1.07385,0.97211 -1.66536,1.3112 -2.77235,1.58927 -0.86689,0.21775 -1.65706,0.22188 -2.5452,0.0133 z M 58.150893,147.68494 c -0.635287,-0.19119 -0.984047,-0.4601 -1.286857,-0.99223 -0.183223,-0.32199 -0.211576,-0.86967 -0.211576,-4.08697 v -3.71516 l -4.003789,-0.0619 c -3.816665,-0.059 -4.02072,-0.0741 -4.366046,-0.32254 -1.096356,-0.78877 -1.251131,-2.76031 -0.298813,-3.8063 0.583901,-0.64133 0.996116,-0.70087 4.852754,-0.70087 1.910621,0 3.565262,-0.0338 3.676978,-0.0752 0.177334,-0.0656 0.203123,-0.44868 0.203123,-3.01714 0,-3.09128 0.106137,-4.07485 0.494841,-4.58568 0.652535,-0.85757 2.128254,-1.12599 3.234033,-0.58824 0.439401,0.21369 0.647435,0.42298 0.892425,0.89783 0.310574,0.60197 0.321291,0.71221 0.38524,3.96284 l 0.06578,3.34364 3.659775,0.0619 c 2.44049,0.0413 3.745338,0.10994 3.9166,0.20606 0.829418,0.46551 1.31185,1.49803 1.169127,2.50222 -0.110502,0.77749 -0.503769,1.31475 -1.206073,1.6477 -0.575289,0.27273 -0.776039,0.28995 -4.072274,0.34934 l -3.467155,0.0625 -0.07202,3.71516 c -0.04947,2.5517 -0.122402,3.8315 -0.232892,4.08667 -0.491754,1.13568 -1.806163,1.57591 -3.333177,1.11637 z"
         id="path185" />
      <path
         style="fill:#001f38;stroke-width:0.126105"
         d="m 126.7257,187.6051 c -1.67237,-0.26493 -1.82862,-0.39802 -13.58909,-11.57493 -2.60877,-2.47933 -2.80746,-2.81591 -2.80746,-4.75578 0,-1.1881 0.0326,-1.36443 0.37774,-2.04334 1.14769,-2.25755 3.86197,-3.40994 6.31615,-2.68164 0.48536,0.14403 1.0441,0.36612 1.24163,0.49352 0.19754,0.12741 1.62111,1.4036 3.1635,2.83599 3.11553,2.89334 3.70649,3.28127 5.37892,3.53092 1.52599,0.22778 3.24731,-0.20179 4.39806,-1.09757 0.93478,-0.72767 34.29896,-32.2819 34.60472,-32.72748 1.1815,-1.72176 1.16562,-4.17058 -0.038,-5.86794 -0.531,-0.74879 -34.00859,-32.37899 -34.85677,-32.93327 -1.04212,-0.68101 -1.84316,-0.8966 -3.31435,-0.892002 -1.47676,0.0046 -2.21044,0.209622 -3.25705,0.910062 -0.69089,0.46239 -34.028134,31.87827 -34.647414,32.65055 -0.611116,0.76209 -1.004742,1.76472 -1.095146,2.78949 -0.08676,0.98348 0.109854,1.8753 0.637678,2.89245 0.41504,0.79981 0.316678,0.70029 6.078679,6.14969 3.890339,3.67928 4.141234,3.99002 4.426403,5.48224 0.61509,3.21862 -2.597984,6.22475 -6.036127,5.64735 -1.745418,-0.29312 -1.519151,-0.10749 -10.755656,-8.82422 -9.670819,-9.12661 -9.283556,-8.68803 -9.386439,-10.63028 -0.07022,-1.32564 0.171314,-2.20278 0.839674,-3.04931 0.521597,-0.66063 49.011478,-46.439741 50.016908,-47.220764 0.92831,-0.721115 1.87581,-1.029791 3.17849,-1.03549 1.26695,-0.0055 2.12164,0.231437 2.9849,0.827614 0.31647,0.218562 10.56586,9.812107 22.77641,21.31899 28.89023,27.22535 27.45738,25.85284 27.92064,26.7451 0.20898,0.40251 0.38574,0.8762 0.39278,1.05262 l 0.0128,0.32078 0.10277,-0.3096 c 0.0647,-0.19483 0.10281,0.19538 0.10281,1.05263 0,0.85725 -0.0381,1.24746 -0.10281,1.05263 l -0.10281,-0.3096 -0.0141,0.3096 c -0.0378,0.83341 -0.64489,1.64188 -2.74733,3.65887 -5.69979,5.4681 -47.81449,45.0668 -48.26484,45.38141 -1.05082,0.73409 -2.58267,1.06515 -3.93631,0.85071 z M 58.065005,147.56536 c -0.282509,-0.0999 -0.641692,-0.32418 -0.798184,-0.49833 -0.514458,-0.57252 -0.579431,-1.15128 -0.531268,-4.73233 0.02901,-2.15723 -0.0013,-3.41461 -0.08405,-3.49453 -0.07961,-0.0768 -1.644468,-0.13875 -4.067948,-0.16104 -3.762738,-0.0346 -3.954747,-0.0478 -4.300878,-0.29504 -0.47914,-0.34228 -0.717661,-0.83684 -0.787014,-1.63182 -0.111009,-1.27247 0.427832,-2.24013 1.396625,-2.50808 0.241412,-0.0668 2.031828,-0.1214 3.9787,-0.1214 2.633178,0 3.594046,-0.0397 3.751695,-0.1548 0.186054,-0.1359 0.216484,-0.56299 0.249267,-3.49844 0.03414,-3.05693 0.05936,-3.38543 0.294166,-3.83101 0.398986,-0.75713 0.823346,-0.98799 1.900608,-1.034 1.220451,-0.0521 1.705833,0.18012 2.144405,1.02601 0.314652,0.60689 0.321802,0.68442 0.359748,3.90092 0.03224,2.73247 0.07078,3.30539 0.230302,3.42315 0.136805,0.10098 1.025334,0.12283 3.107406,0.0764 3.367148,-0.0751 4.157294,0.024 4.846626,0.60765 0.69203,0.58596 0.900005,1.72552 0.493659,2.7049 -0.151391,0.36489 -0.369833,0.59308 -0.802583,0.83842 l -0.594577,0.33708 -3.493195,0.0619 c -2.069223,0.0367 -3.544747,0.1124 -3.619656,0.18576 -0.07547,0.0739 -0.14264,1.62196 -0.166579,3.839 -0.03729,3.45301 -0.05824,3.74483 -0.296944,4.13565 -0.427711,0.70027 -0.86121,0.92952 -1.833992,0.96987 -0.528939,0.0219 -1.061399,-0.0345 -1.376336,-0.1459 z"
         id="path183" />
    </g>
  </g>
</svg>
